<?xml version="1.0" standalone="no"?>
<!DOCTYPE svg PUBLIC "-//W3C//DTD SVG 20010904//EN"
 "http://www.w3.org/TR/2001/REC-SVG-20010904/DTD/svg10.dtd">
<svg version="1.0" xmlns="http://www.w3.org/2000/svg"
 width="792.000000pt" height="792.000000pt" viewBox="0 0 792.000000 792.000000"
 preserveAspectRatio="xMidYMid meet">
<metadata>
Created by potrace 1.14, written by Peter Selinger 2001-2017
</metadata>
<g transform="translate(0.000000,792.000000) scale(0.100000,-0.100000)"
fill="#000000" stroke="none">
<path d="M4499 5818 c-1 -2 -3 -763 -4 -1693 -1 -1167 2 -1699 9 -1720 23 -65
72 -121 131 -149 76 -36 359 -146 376 -146 15 0 19 8 19 38 1 20 1 782 1 1693
1 1619 1 1658 -18 1700 -27 60 -65 103 -110 124 -21 9 -55 25 -75 36 -21 10
-38 16 -38 13 0 -4 -6 -1 -14 5 -8 7 -22 14 -32 16 -11 2 -61 22 -113 44 -81
35 -127 48 -132 39z"/>
<path d="M2088 5483 c-2 -10 -3 -481 -2 -1048 l1 -1030 22 -45 c39 -81 75
-110 186 -154 39 -16 81 -33 95 -39 14 -5 30 -11 35 -13 6 -1 47 -18 92 -38
67 -28 85 -33 95 -22 19 19 17 2052 -2 2114 -16 52 -68 114 -112 135 -33 16
-89 39 -98 42 -3 0 -27 11 -54 23 -27 12 -54 22 -60 22 -7 0 -16 4 -21 9 -13
11 -142 61 -159 61 -7 0 -15 -8 -18 -17z"/>
<path d="M4149 5266 c-48 -22 -68 -30 -159 -66 -198 -79 -234 -102 -277 -182
-17 -31 -18 -78 -18 -828 0 -770 1 -796 20 -835 10 -22 25 -46 32 -53 7 -7 13
-17 13 -20 0 -4 8 -12 19 -17 45 -24 110 -54 161 -74 63 -25 80 -32 135 -57
88 -38 140 -53 147 -41 4 7 8 498 8 1092 0 1018 -1 1081 -17 1091 -14 8 -29 6
-64 -10z"/>
<path d="M3377 4939 c-10 -6 -25 -12 -35 -14 -47 -10 -343 -143 -370 -167 -36
-30 -67 -81 -76 -126 -13 -57 -10 -2522 3 -2535 8 -8 56 7 184 58 94 38 175
74 179 80 4 5 8 6 8 1 0 -10 46 18 84 53 16 14 38 46 50 71 21 45 21 46 22
1308 0 1146 -1 1264 -16 1272 -9 5 -23 4 -33 -1z"/>
<path d="M5660 4568 c-242 -98 -256 -105 -293 -141 -16 -15 -38 -49 -50 -75
-21 -47 -21 -52 -22 -865 0 -603 3 -821 11 -828 8 -6 30 -2 65 12 30 11 72 28
93 36 22 8 59 23 82 34 24 10 45 19 47 19 3 0 21 7 41 15 20 8 37 14 38 13 4
-4 70 42 94 66 12 12 32 41 44 66 l23 45 1 810 c1 446 0 818 -2 827 -2 9 -9
19 -16 21 -6 3 -77 -22 -156 -55z"/>
</g>
</svg>
