<?xml version="1.0" encoding="UTF-8"?>
<svg id="Calque_1" data-name="Calque 1" xmlns="http://www.w3.org/2000/svg" version="1.1" viewBox="0 0 98.7 95.2">
  <defs>
    <style>
      .cls-1 {
        fill: #fff;
        stroke-width: 0px;
      }
    </style>
  </defs>
  <path class="cls-1" d="M56,24.6v41.5c0,1.2.8,2.4,1.9,2.8l4.4,1.8c.2,0,.4,0,.4-.3V29c0-1.2-.8-2.4-1.9-2.8l-4.4-1.8c-.2,0-.4,0-.4.3h0Z"/>
  <path class="cls-1" d="M66,43.9v19.7c0,.2.2.3.4.3l4.4-1.8c1.2-.5,1.9-1.6,1.9-2.8v-19.7c0-.2-.2-.3-.4-.3l-4.4,1.8c-1.2.5-1.9,1.6-1.9,2.8Z"/>
  <path class="cls-1" d="M46,35.8v18.1c0,1.2.8,2.4,1.9,2.8l4.4,1.8c.2,0,.4,0,.4-.3v-26.8c0-.2-.2-.3-.4-.3l-4.4,1.8c-1.2.5-1.9,1.6-1.9,2.8Z"/>
  <path class="cls-1" d="M36,39.9v30.7c0,.2.2.3.4.3l4.4-1.8c1.2-.5,1.9-1.6,1.9-2.8v-30.7c0-.2-.2-.3-.4-.3l-4.4,1.8c-1.2.5-1.9,1.6-1.9,2.8Z"/>
  <path class="cls-1" d="M26,28.7v25.2c0,1.2.8,2.4,1.9,2.8l4.4,1.8c.2,0,.4,0,.4-.3v-25.2c0-1.2-.8-2.4-1.9-2.8l-4.4-1.8c-.2,0-.4,0-.4.3Z"/>
</svg>